<svg id="Layer_1" data-name="Layer 1" xmlns="http://www.w3.org/2000/svg" viewBox="0 0 382.1362 58.3937"><defs><style>.cls-1{fill:#2b2d42;}.cls-2{fill:#757bc8;}.cls-3{isolation:isolate;font-size:24px;font-family:Lato-Bold, Lato;font-weight:700;}.cls-3,.cls-5,.cls-6{fill:#fff;}.cls-4{fill:#74c69d;}.cls-6{stroke:#ff758f;stroke-miterlimit:10;}</style></defs><g id="Layer_2" data-name="Layer 2"><g id="Layer_2-2" data-name="Layer 2-2"><g id="logo"><g id="app_name" data-name="app name"><path class="cls-1" d="M6.4805,16.981V27.253H19.4883v5.16H6.4805V46.5489H0V11.8448H21.8882V16.981Z"/><path class="cls-1" d="M47.4961,41.2208v5.3281H27.168V11.8448h6.456v29.376Z"/><path class="cls-1" d="M81.8394,46.5489H76.8472a2.1275,2.1275,0,0,1-1.3677-.42,2.6072,2.6072,0,0,1-.792-1.044l-2.5923-7.08H57.7192l-2.5918,7.08a2.3034,2.3034,0,0,1-.7441,1.0078,2.0766,2.0766,0,0,1-1.3682.4561h-5.04l13.6562-34.704H68.207Zm-11.4-13.104-4.2242-11.544q-.312-.7675-.6479-1.8242t-.6724-2.28q-.312,1.224-.6479,2.292t-.648,1.86l-4.2,11.4961Z"/><path class="cls-1" d="M103.9189,18.1568a2.2274,2.2274,0,0,1-.6123.7319,1.3581,1.3581,0,0,1-.8037.2281,2.0687,2.0687,0,0,1-1.0923-.3721q-.588-.3714-1.4038-.8276a11.6,11.6,0,0,0-1.9082-.8282,8.02,8.02,0,0,0-2.58-.372,7.694,7.694,0,0,0-2.3521.3242,4.9326,4.9326,0,0,0-1.6919.9,3.5983,3.5983,0,0,0-1.02,1.38,4.5288,4.5288,0,0,0-.3359,1.7641,3.0675,3.0675,0,0,0,.684,2.04,5.7055,5.7055,0,0,0,1.812,1.3916,16.77,16.77,0,0,0,2.5679,1.0322q1.44.4563,2.9522.9722a27.8779,27.8779,0,0,1,2.9521,1.2,10.2015,10.2015,0,0,1,2.5679,1.728,7.8406,7.8406,0,0,1,1.812,2.5561,8.8743,8.8743,0,0,1,.6841,3.6719,11.9636,11.9636,0,0,1-.8042,4.4043,10.1578,10.1578,0,0,1-2.3521,3.5757,11.0665,11.0665,0,0,1-3.78,2.4,13.9174,13.9174,0,0,1-5.1123.876,16.49,16.49,0,0,1-3.2636-.3238,17.1591,17.1591,0,0,1-3.084-.9238,16.4524,16.4524,0,0,1-2.772-1.44,13.3362,13.3362,0,0,1-2.3042-1.8716l1.896-3.0962a2.0187,2.0187,0,0,1,.624-.5639,1.5734,1.5734,0,0,1,.8159-.2281,2.2888,2.2888,0,0,1,1.2959.4922q.6958.4922,1.6563,1.0918a12.9851,12.9851,0,0,0,2.2441,1.0918,8.6235,8.6235,0,0,0,3.084.4922,6.3292,6.3292,0,0,0,4.272-1.3081,4.6966,4.6966,0,0,0,1.5117-3.7559,3.4853,3.4853,0,0,0-.6841-2.2319,5.5212,5.5212,0,0,0-1.812-1.4522,13.5773,13.5773,0,0,0-2.5679-.996q-1.44-.408-2.9277-.8877A25.1412,25.1412,0,0,1,89.1585,29.87a9.4736,9.4736,0,0,1-2.5679-1.7519,7.9655,7.9655,0,0,1-1.812-2.7,10.2922,10.2922,0,0,1-.6841-3.9961,9.6,9.6,0,0,1,2.9522-6.8882,10.76,10.76,0,0,1,3.5517-2.232,13.0449,13.0449,0,0,1,4.8482-.84,16.1945,16.1945,0,0,1,5.664.96,12.7944,12.7944,0,0,1,4.4161,2.6879Z"/><path class="cls-1" d="M141.0225,11.8448V46.5489h-6.48V31.3809H118.2466v15.168h-6.4805V11.8448h6.4805V26.773h16.2959V11.8448Z"/><path class="cls-1" d="M172.582,38.3648a1.2873,1.2873,0,0,1,.9361.4082l2.5439,2.76a13.97,13.97,0,0,1-5.1958,4.0083,17.91,17.91,0,0,1-7.4038,1.3916,17.4886,17.4886,0,0,1-6.9482-1.32,15.307,15.307,0,0,1-5.2681-3.6719,16.07,16.07,0,0,1-3.3477-5.6162,21.0729,21.0729,0,0,1-1.164-7.128,19.8322,19.8322,0,0,1,1.248-7.164,16.466,16.466,0,0,1,3.5156-5.604,15.9176,15.9176,0,0,1,5.4122-3.66,17.95,17.95,0,0,1,6.96-1.3081,17.0957,17.0957,0,0,1,6.732,1.248,16.0506,16.0506,0,0,1,5.0043,3.2637l-2.16,3a1.9589,1.9589,0,0,1-.4922.5044,1.3974,1.3974,0,0,1-.8276.2158,1.5792,1.5792,0,0,1-.7442-.2041q-.3844-.2035-.84-.5039t-1.0557-.66a8.7472,8.7472,0,0,0-1.3921-.66,11.3655,11.3655,0,0,0-1.8359-.5044,12.7163,12.7163,0,0,0-2.4121-.2036,10.7047,10.7047,0,0,0-4.26.8276,9.2607,9.2607,0,0,0-3.3242,2.4,11.0611,11.0611,0,0,0-2.16,3.84,16.0852,16.0852,0,0,0-.7676,5.1718,15.21,15.21,0,0,0,.8276,5.208,11.4407,11.4407,0,0,0,2.2441,3.84,9.569,9.569,0,0,0,3.336,2.3882,10.3074,10.3074,0,0,0,4.1279.8281,18.0387,18.0387,0,0,0,2.3882-.144,10.1461,10.1461,0,0,0,1.9678-.4561,8.7062,8.7062,0,0,0,1.7041-.8042,10.6341,10.6341,0,0,0,1.5962-1.2119,2.2524,2.2524,0,0,1,.5039-.3477A1.2184,1.2184,0,0,1,172.582,38.3648Z"/><path class="cls-1" d="M210.2383,46.5489h-4.9922a2.1274,2.1274,0,0,1-1.3677-.42,2.6072,2.6072,0,0,1-.792-1.044l-2.5923-7.08H186.1182l-2.5918,7.08a2.3036,2.3036,0,0,1-.7442,1.0078,2.0764,2.0764,0,0,1-1.3681.4561h-5.04L190.03,11.8448h6.5757Zm-11.4-13.104-4.2241-11.544q-.3122-.7675-.648-1.8242t-.6724-2.28q-.312,1.224-.6479,2.292t-.648,1.86l-4.2,11.4961Z"/><path class="cls-1" d="M240.9331,46.5489h-5.832a2.5577,2.5577,0,0,1-2.4-1.2959l-7.2959-11.1123a2.5732,2.5732,0,0,0-.9-.8877,3.1582,3.1582,0,0,0-1.4522-.2642h-2.76v13.56h-6.4561V11.8448h10.5845a22.0109,22.0109,0,0,1,6.06.7319,11.6032,11.6032,0,0,1,4.1523,2.0523,8.0278,8.0278,0,0,1,2.3877,3.1557,10.9636,10.9636,0,0,1,.2519,7.356,9.5761,9.5761,0,0,1-1.4877,2.832,10.0153,10.0153,0,0,1-2.4,2.232,12.0282,12.0282,0,0,1-3.252,1.5122,6.3547,6.3547,0,0,1,1.1519.852,6.0827,6.0827,0,0,1,.96,1.1641ZM224.3252,28.357a9.99,9.99,0,0,0,3.18-.4561,6.1436,6.1436,0,0,0,2.2319-1.26,5.06,5.06,0,0,0,1.3076-1.9077,6.5952,6.5952,0,0,0,.4322-2.4243,4.9293,4.9293,0,0,0-1.74-4.0557,8.3248,8.3248,0,0,0-5.3159-1.416h-4.128v11.52Z"/><path class="cls-1" d="M275.5171,29.1968a18.7687,18.7687,0,0,1-1.272,7.0079,15.7372,15.7372,0,0,1-9.12,9.0722,19.5475,19.5475,0,0,1-7.2,1.272H244.7007V11.8448h13.2241a19.3885,19.3885,0,0,1,7.2,1.2842,16.2371,16.2371,0,0,1,5.5439,3.5757,15.9809,15.9809,0,0,1,3.5762,5.4843A18.772,18.772,0,0,1,275.5171,29.1968Zm-6.624,0a16.1513,16.1513,0,0,0-.7564-5.124,10.6216,10.6216,0,0,0-2.1836-3.84,9.5349,9.5349,0,0,0-3.456-2.4121,11.8515,11.8515,0,0,0-4.5723-.84h-6.7436v24.432h6.7436a11.8437,11.8437,0,0,0,4.5723-.84,9.5246,9.5246,0,0,0,3.456-2.4121,10.6141,10.6141,0,0,0,2.1836-3.84A16.1472,16.1472,0,0,0,268.8931,29.1968Z"/><path class="cls-1" d="M294.0449,33.1089v13.44h-6.4321v-13.44l-12.648-21.2641h5.688a2.0236,2.0236,0,0,1,1.3321.4082,3.4593,3.4593,0,0,1,.8281,1.0317l6.3359,11.5923q.5514,1.032.9722,1.9439.4189.9126.7559,1.8242.3111-.9119.72-1.8242t.936-1.9439l6.312-11.5923a3.2089,3.2089,0,0,1,.792-.9839,1.9837,1.9837,0,0,1,1.3443-.456h5.7119Z"/></g><g id="flashcards"><rect id="fc_front" data-name="fc front" class="cls-2" x="323.8962" width="36" height="36"/><text class="cls-3" transform="translate(336.3762 24.9177)">?</text><g id="fc_back" data-name="fc back"><rect class="cls-4" x="346.1362" y="22.3937" width="36" height="36"/><g id="eyes"><g id="eyeR"><rect class="cls-5" x="368.1362" y="28.3937" width="10" height="10"/><rect x="371.1362" y="34.3937" width="4" height="4"/></g><g id="eyeL"><rect class="cls-5" x="350.1362" y="28.3937" width="10" height="10"/><rect x="353.1362" y="34.3937" width="4" height="4"/></g></g><path class="cls-6" d="M354.8862,51.4806s18,2.9131,19-4.0869S354.8862,51.4806,354.8862,51.4806Z"/></g></g></g></g></g></svg>